# xmcd
#
# Track frame offsets:
#	150
#	14521
#	26662
#	37125
#	48089
#	62623
#	73746
#	90037
#	104806
#	117997
#	136635
#	148567
#	157941
#	167212
#	178069
#	197825
#	208908
#	224847
#
# Disc length: 3167 seconds
#
# Revision: 0
# Processed by: cddbd v1.5.2PL0 Copyright (c) Steve Scherf et al.
# Submitted via: audiograbber 1.83.01
#
DISCID=0c0c5d12
DTITLE=Various Artist - The Very Best Of Country Gold  Disc Two
DYEAR=2003
DGENRE=Country
TTITLE0=John Denver - Take Me Home Country Roads
TTITLE1=Billie Jo Spears - (You Never Can Tell) C'est La Vie
TTITLE2=Kris Kristofferson - Help Me Make It Through The Night
TTITLE3=Jim Croce - Time In A Bottle
TTITLE4=Jeannie C Riley - Harper Valley PTA
TTITLE5=Roy Orbison - Blue Bayou (Album Version)
TTITLE6=Charlie Daniels Band - The Devil Went Down To Georgia
TTITLE7=Bellamy Brothers - Let Your Love Flow
TTITLE8=Charlie Rich - Behind Closed Doors
TTITLE9=The Be Good Tanyas - The Little Birds
TTITLE10=Kenny Rogers - Me and Bobby McGee
TTITLE11=George Jones - The Race Is On
TTITLE12=Faron Young - King Of The Road
TTITLE13=Loretta Lynn - Crazy (Live)
TTITLE14=Ryan and Rachel O'Donnell - When You Say Nothing At All
TTITLE15=Don Gibson - Oh Lonesome Me
TTITLE16=Anne Murray - Both Sides Now
TTITLE17=Ralph Stanley - Man Of Constant Sorrow
EXTD=
EXTT0=
EXTT1=
EXTT2=
EXTT3=
EXTT4=
EXTT5=
EXTT6=
EXTT7=
EXTT8=
EXTT9=
EXTT10=
EXTT11=
EXTT12=
EXTT13=
EXTT14=
EXTT15=
EXTT16=
EXTT17=
PLAYORDER=
